<svg xmlns="http://www.w3.org/2000/svg" width="256" height="256" viewBox="0 0 100 100"><rect width="100" height="100" rx="0" fill="#dddbd6"></rect><path fill="#5c3d30" d="M-5.71 20.25L-5.71 18.54L21.74 18.54L21.74 20.25L16.79 20.25L16.79 48.69L17.51 48.51L42.89 20.25L35.78 20.25L35.78 18.54L51.53 18.54L51.53 20.25L46.13 20.25L30.65 37.53L52.25 79.83L57.11 79.83L57.11 81.54L28.22 81.54L28.22 79.83L32.45 79.83L17.60 51.12L16.79 51.30L16.79 79.83L21.74 79.83L21.74 81.54L-5.71 81.54L-5.71 79.83L-0.76 79.83L-0.76 20.25L-5.71 20.25ZM84.65 80.55L84.65 80.55Q89.15 80.55 92.62 78.12Q96.08 75.69 96.08 70.79Q96.08 65.88 92.34 63.27Q88.61 60.66 81.73 58.73Q74.84 56.79 71.74 55.35Q68.63 53.91 65.84 51.57L65.84 51.57Q60.26 46.89 60.26 37.08L60.26 37.08Q60.26 29.07 65.98 23.31Q71.69 17.55 81.59 17.55L81.59 17.55Q86.36 17.55 91.53 18.95Q96.71 20.34 97.97 20.34Q99.23 20.34 100.22 18.54L100.22 18.54L101.21 18.54L101.84 36.72L100.40 36.72Q96.08 28.89 91.36 24.17Q86.63 19.44 81.09 19.44Q75.56 19.44 72.50 22.01Q69.44 24.57 69.44 28.85Q69.44 33.12 73.09 35.42Q76.73 37.71 82.04 39.15Q87.35 40.59 89.02 41.13Q90.68 41.67 93.16 42.62Q95.63 43.56 97.21 44.60Q98.78 45.63 100.53 47.21Q102.29 48.78 103.28 50.67L103.28 50.67Q105.71 54.99 105.71 60.93L105.71 60.93Q105.71 70.65 99.64 76.55Q93.56 82.44 83.66 82.44L83.66 82.44Q78.53 82.44 71.92 81.09Q65.30 79.74 64.58 79.74L64.58 79.74Q63.32 79.74 62.15 82.44L62.15 82.44L60.89 82.44L59.99 61.02L61.52 61.02Q65.48 68.85 71.65 74.70Q77.81 80.55 84.65 80.55Z"></path></svg>